<?xml version="1.0" encoding="UTF-8"?>
<svg version="1.1" xmlns="http://www.w3.org/2000/svg" width="512" height="512">
<path d="M0 0 C0.68562012 0.18804199 1.37124023 0.37608398 2.07763672 0.56982422 C29.12910513 8.11781441 55.44078377 25.09701788 71.97265625 48.0859375 C73.62522221 51.16486267 73.52157135 53.60978624 73 57 C72.59007812 57.59167969 72.18015625 58.18335938 71.7578125 58.79296875 C70.66313886 61.1786156 70.66313886 61.1786156 72.3359375 64.12890625 C73.00882813 65.26199219 73.68171875 66.39507812 74.375 67.5625 C78 73.72779923 78 73.72779923 78 77 C78.825 76.95359375 79.65 76.9071875 80.5 76.859375 C100.85401814 76.22331193 118.95031335 83.76238468 135 96 C136.10794922 96.82951172 136.10794922 96.82951172 137.23828125 97.67578125 C143.7130678 102.90491748 150.26245835 110.52491669 154 118 C154.81082031 117.9278125 155.62164062 117.855625 156.45703125 117.78125 C174.71938305 116.25052901 191.1161482 117.26710725 208 125 C208.92039062 125.41894531 209.84078125 125.83789062 210.7890625 126.26953125 C229.35706536 135.55353268 243.74943723 152.66798526 250.76318359 172.11621094 C253.72841956 181.46079499 255.17719041 190.77679753 255.125 200.5625 C255.12886719 201.29146484 255.13273437 202.02042969 255.13671875 202.77148438 C255.12918497 206.95650092 254.82057162 210.8776045 254 215 C254.57363281 215.26039063 255.14726562 215.52078125 255.73828125 215.7890625 C270.68312284 223.79061844 279.61533132 241.41459374 285.38671875 256.6640625 C291.75881463 277.90438212 289.41734124 301.60042393 279.34130859 321.19799805 C268.69896391 340.72667639 252.05927631 354.66701833 231 362 C222.4209907 364.45775817 214.35859829 365.43686961 205.45890808 365.38768005 C204.26669232 365.39306559 203.07447656 365.39845113 201.84613305 365.40399987 C198.57702471 365.41572977 195.30824914 365.41425666 192.03913867 365.40683305 C188.49776412 365.40206667 184.95644207 365.41464168 181.41508484 365.42485046 C174.49255703 365.44197689 167.57012025 365.44289126 160.64757677 365.43763756 C155.01586392 365.43358278 149.38417779 365.43505489 143.7524662 365.44038582 C142.94844166 365.44113424 142.14441711 365.44188266 141.31602818 365.44265376 C139.68221582 365.44418537 138.04840346 365.44572372 136.41459111 365.44726873 C121.12007274 365.46097173 105.82560563 365.45557179 90.53108845 365.44408352 C76.56850928 365.43415543 62.60606271 365.44708838 48.64350399 365.47101771 C34.27376372 365.4954575 19.90408508 365.5050045 5.53432447 365.49836498 C-2.5199756 365.49488333 -10.57417378 365.49703473 -18.62845802 365.51461601 C-25.48544047 365.5293993 -32.3422493 365.52989411 -39.19922856 365.5125451 C-42.69094422 365.50408237 -46.18235055 365.50176797 -49.67404938 365.51719666 C-66.661776 365.57660176 -82.89742448 365.5743664 -98.25 357.3125 C-98.90347412 356.9729126 -99.55694824 356.6333252 -100.23022461 356.28344727 C-120.0243288 345.67005782 -134.59269373 328.433427 -141.359375 306.94140625 C-147.5137318 285.25462515 -145.56783602 262.11051139 -135.125 242.0625 C-129.2450481 232.01695557 -121.3360427 223.08343535 -113 215 C-117.76394861 208.84355974 -117.76394861 208.84355974 -124.42578125 205.578125 C-125.95471377 205.69118892 -127.48236604 205.82349002 -129.0078125 205.9765625 C-131 206 -131 206 -133.625 204.125 C-134.40875 203.09375 -135.1925 202.0625 -136 201 C-136.51949219 200.34128906 -137.03898437 199.68257812 -137.57421875 199.00390625 C-145.05408954 189.03634809 -150.31759636 177.69425817 -154.3125 165.9375 C-154.54267822 165.2671875 -154.77285645 164.596875 -155.01000977 163.90625 C-159.06237878 151.32860008 -160.55652097 138.94671324 -160.4375 125.8125 C-160.43445862 125.09554962 -160.43141724 124.37859924 -160.42828369 123.6399231 C-160.2117292 88.975324 -147.04095358 58.94068986 -123 34 C-122.34515625 33.28199219 -121.6903125 32.56398437 -121.015625 31.82421875 C-115.11677885 25.53463707 -108.13883693 20.76530022 -101 16 C-100.06542969 15.36964844 -99.13085938 14.73929688 -98.16796875 14.08984375 C-70.53460647 -3.26501468 -31.49457726 -9.0922874 0 0 Z " fill="#DBE0EA" transform="translate(224,107)"/>
<path d="M0 0 C0.68562012 0.18804199 1.37124023 0.37608398 2.07763672 0.56982422 C29.12910513 8.11781441 55.44078377 25.09701788 71.97265625 48.0859375 C73.62522221 51.16486267 73.52157135 53.60978624 73 57 C72.59007812 57.59167969 72.18015625 58.18335938 71.7578125 58.79296875 C70.66313886 61.1786156 70.66313886 61.1786156 72.3359375 64.12890625 C73.00882813 65.26199219 73.68171875 66.39507812 74.375 67.5625 C78 73.72779923 78 73.72779923 78 77 C78.825 76.95359375 79.65 76.9071875 80.5 76.859375 C100.85401814 76.22331193 118.95031335 83.76238468 135 96 C136.10794922 96.82951172 136.10794922 96.82951172 137.23828125 97.67578125 C143.7130678 102.90491748 150.26245835 110.52491669 154 118 C154.81082031 117.9278125 155.62164062 117.855625 156.45703125 117.78125 C174.71938305 116.25052901 191.1161482 117.26710725 208 125 C208.92039062 125.41894531 209.84078125 125.83789062 210.7890625 126.26953125 C229.35706536 135.55353268 243.74943723 152.66798526 250.76318359 172.11621094 C253.72841956 181.46079499 255.17719041 190.77679753 255.125 200.5625 C255.12886719 201.29146484 255.13273437 202.02042969 255.13671875 202.77148438 C255.12918497 206.95650092 254.82057162 210.8776045 254 215 C254.57363281 215.26039063 255.14726562 215.52078125 255.73828125 215.7890625 C270.68312284 223.79061844 279.61533132 241.41459374 285.38671875 256.6640625 C291.75881463 277.90438212 289.41734124 301.60042393 279.34130859 321.19799805 C268.69896391 340.72667639 252.05927631 354.66701833 231 362 C222.4209907 364.45775817 214.35859829 365.43686961 205.45890808 365.38768005 C204.26669232 365.39306559 203.07447656 365.39845113 201.84613305 365.40399987 C198.57702471 365.41572977 195.30824914 365.41425666 192.03913867 365.40683305 C188.49776412 365.40206667 184.95644207 365.41464168 181.41508484 365.42485046 C174.49255703 365.44197689 167.57012025 365.44289126 160.64757677 365.43763756 C155.01586392 365.43358278 149.38417779 365.43505489 143.7524662 365.44038582 C142.94844166 365.44113424 142.14441711 365.44188266 141.31602818 365.44265376 C139.68221582 365.44418537 138.04840346 365.44572372 136.41459111 365.44726873 C121.12007274 365.46097173 105.82560563 365.45557179 90.53108845 365.44408352 C76.56850928 365.43415543 62.60606271 365.44708838 48.64350399 365.47101771 C34.27376372 365.4954575 19.90408508 365.5050045 5.53432447 365.49836498 C-2.5199756 365.49488333 -10.57417378 365.49703473 -18.62845802 365.51461601 C-25.48544047 365.5293993 -32.3422493 365.52989411 -39.19922856 365.5125451 C-42.69094422 365.50408237 -46.18235055 365.50176797 -49.67404938 365.51719666 C-66.661776 365.57660176 -82.89742448 365.5743664 -98.25 357.3125 C-98.90347412 356.9729126 -99.55694824 356.6333252 -100.23022461 356.28344727 C-120.0243288 345.67005782 -134.59269373 328.433427 -141.359375 306.94140625 C-147.5137318 285.25462515 -145.56783602 262.11051139 -135.125 242.0625 C-129.2450481 232.01695557 -121.3360427 223.08343535 -113 215 C-117.76394861 208.84355974 -117.76394861 208.84355974 -124.42578125 205.578125 C-125.95471377 205.69118892 -127.48236604 205.82349002 -129.0078125 205.9765625 C-131 206 -131 206 -133.625 204.125 C-134.40875 203.09375 -135.1925 202.0625 -136 201 C-136.51949219 200.34128906 -137.03898437 199.68257812 -137.57421875 199.00390625 C-145.05408954 189.03634809 -150.31759636 177.69425817 -154.3125 165.9375 C-154.54267822 165.2671875 -154.77285645 164.596875 -155.01000977 163.90625 C-159.06237878 151.32860008 -160.55652097 138.94671324 -160.4375 125.8125 C-160.43445862 125.09554962 -160.43141724 124.37859924 -160.42828369 123.6399231 C-160.2117292 88.975324 -147.04095358 58.94068986 -123 34 C-122.34515625 33.28199219 -121.6903125 32.56398437 -121.015625 31.82421875 C-115.11677885 25.53463707 -108.13883693 20.76530022 -101 16 C-100.06542969 15.36964844 -99.13085938 14.73929688 -98.16796875 14.08984375 C-70.53460647 -3.26501468 -31.49457726 -9.0922874 0 0 Z M24.34765625 116.96875 C16.59488275 126.34715161 10.43613905 137.04196387 7.80078125 149.01171875 C6.66518515 151.83132078 5.7395392 152.63674277 3 154 C0.02240738 154.11384913 -2.78646966 154.08393812 -5.75 153.9375 C-24.60797318 153.517352 -39.97933227 159.86520812 -54.27734375 172.3359375 C-64.4987603 182.33738095 -70.82187683 194.7168803 -73.53222656 208.65698242 C-74.15093196 211.61045966 -74.63627244 213.62500654 -76.765625 215.8203125 C-79.33477899 217.17675394 -81.91204638 218.2709835 -84.625 219.3125 C-101.43308662 226.2107341 -114.93009467 237.61826497 -122.52734375 254.3671875 C-129.90689127 272.89092127 -130.32367402 290.71019452 -122.64453125 309.27734375 C-119.55011027 315.85609934 -115.79089908 321.54369827 -111 327 C-110.12601563 328.01513672 -110.12601563 328.01513672 -109.234375 329.05078125 C-98.96632861 340.16011716 -83.528573 348.12647366 -68.31385934 349.18728507 C-65.26725402 349.25939608 -62.22620594 349.27141497 -59.17875671 349.26069641 C-58.01572126 349.26452196 -56.8526858 349.26834751 -55.65440685 349.27228898 C-52.4484119 349.28078405 -49.24256457 349.28039993 -46.0365659 349.27610838 C-42.57019241 349.27363206 -39.10384536 349.28266657 -35.63748169 349.29014587 C-28.85479647 349.30287016 -22.07215088 349.30468937 -15.28945573 349.30234561 C-9.77346439 349.30055962 -4.25748504 349.30231812 1.25850487 349.30657005 C2.43794567 349.30746284 2.43794567 349.30746284 3.64121356 349.30837366 C5.23879598 349.30958546 6.8363784 349.3107996 8.43396082 349.31201603 C23.40356579 349.32288299 38.37314821 349.32073318 53.34275445 349.31463119 C67.02050718 349.30946375 80.69818866 349.3207144 94.37592731 349.33972941 C108.43815123 349.35912824 122.50034147 349.36736016 136.56257886 349.36360615 C144.45023932 349.36169709 152.33783915 349.36415282 160.22548866 349.37832069 C166.9410222 349.39026163 173.65645779 349.39160914 180.37199274 349.37953053 C183.79428089 349.37366057 187.21639015 349.37248974 190.63866615 349.38453293 C194.35854369 349.39502078 198.07794503 349.38688262 201.79780579 349.3742218 C202.86563288 349.38159609 203.93345996 349.38897037 205.03364545 349.39656812 C223.95498078 349.26170899 240.00671876 341.57966743 253.6875 328.8125 C266.87718787 315.10278859 272.43108656 298.2765066 272.36572266 279.671875 C272.007821 261.8358951 264.07226395 245.90311143 251.44140625 233.484375 C248.17749459 230.47750245 245.08519053 227.6455413 241.26171875 225.37109375 C239 224 239 224 238 222 C237.96170282 219.51348528 237.98165912 217.0546688 238.04296875 214.5703125 C238.06539635 213.03647183 238.08684735 211.50261664 238.10742188 209.96875 C238.14417897 207.56176867 238.1867374 205.15554182 238.24682617 202.74902344 C238.48494709 192.73754675 238.10049359 184.34733222 234 175 C233.60087402 174.08734375 233.20174805 173.1746875 232.79052734 172.234375 C225.58015434 156.40283444 212.44385807 144.62770525 196.4375 138.1875 C187.76395172 135.09996056 180.05026826 133.83669104 170.875 133.75 C170.12259033 133.74057373 169.37018066 133.73114746 168.5949707 133.72143555 C163.41409068 133.75152723 158.99383326 134.63226223 154 136 C150.25 136.375 150.25 136.375 147 136 C144.04352449 133.47879909 142.24824689 130.90579352 140.4375 127.5 C130.3614331 110.31738717 114.08739271 99.82026947 95.12109375 94.54296875 C94.42113281 94.36378906 93.72117187 94.18460937 93 94 C92.38817871 93.82871582 91.77635742 93.65743164 91.14599609 93.48095703 C66.86585682 88.0393331 40.50606162 98.88275872 24.34765625 116.96875 Z " fill="#FED646" transform="translate(224,107)"/>
<path d="M0 0 C1.10794922 0.82951172 1.10794922 0.82951172 2.23828125 1.67578125 C8.7130678 6.90491748 15.26245835 14.52491669 19 22 C19.81082031 21.9278125 20.62164062 21.855625 21.45703125 21.78125 C39.71938305 20.25052901 56.1161482 21.26710725 73 29 C73.92039062 29.41894531 74.84078125 29.83789062 75.7890625 30.26953125 C94.35706536 39.55353268 108.74943723 56.66798526 115.76318359 76.11621094 C118.72841956 85.46079499 120.17719041 94.77679753 120.125 104.5625 C120.12886719 105.29146484 120.13273437 106.02042969 120.13671875 106.77148438 C120.12918497 110.95650092 119.82057162 114.8776045 119 119 C119.57363281 119.26039063 120.14726562 119.52078125 120.73828125 119.7890625 C135.68312284 127.79061844 144.61533132 145.41459374 150.38671875 160.6640625 C156.75881463 181.90438212 154.41734124 205.60042393 144.34130859 225.19799805 C133.69896391 244.72667639 117.05927631 258.66701833 96 266 C87.4209907 268.45775817 79.35859829 269.43686961 70.45890808 269.38768005 C69.26669232 269.39306559 68.07447656 269.39845113 66.84613305 269.40399987 C63.57702471 269.41572977 60.30824914 269.41425666 57.03913867 269.40683305 C53.49776412 269.40206667 49.95644207 269.41464168 46.41508484 269.42485046 C39.49255703 269.44197689 32.57012025 269.44289126 25.64757677 269.43763756 C20.01586392 269.43358278 14.38417779 269.43505489 8.7524662 269.44038582 C7.94844166 269.44113424 7.14441711 269.44188266 6.31602818 269.44265376 C4.68221582 269.44418537 3.04840346 269.44572372 1.41459111 269.44726873 C-13.87992726 269.46097173 -29.17439437 269.45557179 -44.46891155 269.44408352 C-58.43149072 269.43415543 -72.39393729 269.44708838 -86.35649601 269.47101771 C-100.72623628 269.4954575 -115.09591492 269.5050045 -129.46567553 269.49836498 C-137.5199756 269.49488333 -145.57417378 269.49703473 -153.62845802 269.51461601 C-160.48544047 269.5293993 -167.3422493 269.52989411 -174.19922856 269.5125451 C-177.69094422 269.50408237 -181.18235055 269.50176797 -184.67404938 269.51719666 C-201.661776 269.57660176 -217.89742448 269.5743664 -233.25 261.3125 C-233.90347412 260.9729126 -234.55694824 260.6333252 -235.23022461 260.28344727 C-255.0243288 249.67005782 -269.59269373 232.433427 -276.359375 210.94140625 C-282.5137318 189.25462515 -280.56783602 166.11051139 -270.125 146.0625 C-267.17222011 141.01785303 -263.74433815 136.47836038 -260 132 C-259.45601562 131.31035156 -258.91203125 130.62070312 -258.3515625 129.91015625 C-251.70530373 121.78175057 -243.19369824 116.96693338 -234.0625 112.0625 C-233.31629395 111.66039307 -232.57008789 111.25828613 -231.80126953 110.84399414 C-231.09470215 110.47395264 -230.38813477 110.10391113 -229.66015625 109.72265625 C-229.02730713 109.39015869 -228.39445801 109.05766113 -227.74243164 108.71508789 C-226 108 -226 108 -223 108 C-222.938125 106.9275 -222.87625 105.855 -222.8125 104.75 C-220.75519012 88.74243822 -210.03803262 75.05412305 -199 64 C-198.34257812 63.33097656 -197.68515625 62.66195312 -197.0078125 61.97265625 C-183.97670105 49.64063876 -164.01691584 41.75492943 -146.125 41.9375 C-144.97257813 41.94652344 -143.82015625 41.95554688 -142.6328125 41.96484375 C-141.76398438 41.97644531 -140.89515625 41.98804688 -140 42 C-139.443125 40.1128125 -139.443125 40.1128125 -138.875 38.1875 C-131.05541842 14.94697613 -113.07207529 -1.63356103 -91.6875 -12.3125 C-60.68681651 -25.67293862 -26.54506826 -20.24016675 0 0 Z M-110.65234375 20.96875 C-118.40511725 30.34715161 -124.56386095 41.04196387 -127.19921875 53.01171875 C-128.33481485 55.83132078 -129.2604608 56.63674277 -132 58 C-134.97759262 58.11384913 -137.78646966 58.08393812 -140.75 57.9375 C-159.60797318 57.517352 -174.97933227 63.86520812 -189.27734375 76.3359375 C-199.4987603 86.33738095 -205.82187683 98.7168803 -208.53222656 112.65698242 C-209.15093196 115.61045966 -209.63627244 117.62500654 -211.765625 119.8203125 C-214.33477899 121.17675394 -216.91204638 122.2709835 -219.625 123.3125 C-236.43308662 130.2107341 -249.93009467 141.61826497 -257.52734375 158.3671875 C-264.90689127 176.89092127 -265.32367402 194.71019452 -257.64453125 213.27734375 C-254.55011027 219.85609934 -250.79089908 225.54369827 -246 231 C-245.12601563 232.01513672 -245.12601563 232.01513672 -244.234375 233.05078125 C-233.96632861 244.16011716 -218.528573 252.12647366 -203.31385934 253.18728507 C-200.26725402 253.25939608 -197.22620594 253.27141497 -194.17875671 253.26069641 C-193.01572126 253.26452196 -191.8526858 253.26834751 -190.65440685 253.27228898 C-187.4484119 253.28078405 -184.24256457 253.28039993 -181.0365659 253.27610838 C-177.57019241 253.27363206 -174.10384536 253.28266657 -170.63748169 253.29014587 C-163.85479647 253.30287016 -157.07215088 253.30468937 -150.28945573 253.30234561 C-144.77346439 253.30055962 -139.25748504 253.30231812 -133.74149513 253.30657005 C-132.56205433 253.30746284 -132.56205433 253.30746284 -131.35878644 253.30837366 C-129.76120402 253.30958546 -128.1636216 253.3107996 -126.56603918 253.31201603 C-111.59643421 253.32288299 -96.62685179 253.32073318 -81.65724555 253.31463119 C-67.97949282 253.30946375 -54.30181134 253.3207144 -40.62407269 253.33972941 C-26.56184877 253.35912824 -12.49965853 253.36736016 1.56257886 253.36360615 C9.45023932 253.36169709 17.33783915 253.36415282 25.22548866 253.37832069 C31.9410222 253.39026163 38.65645779 253.39160914 45.37199274 253.37953053 C48.79428089 253.37366057 52.21639015 253.37248974 55.63866615 253.38453293 C59.35854369 253.39502078 63.07794503 253.38688262 66.79780579 253.3742218 C67.86563288 253.38159609 68.93345996 253.38897037 70.03364545 253.39656812 C88.95498078 253.26170899 105.00671876 245.57966743 118.6875 232.8125 C131.87718787 219.10278859 137.43108656 202.2765066 137.36572266 183.671875 C137.007821 165.8358951 129.07226395 149.90311143 116.44140625 137.484375 C113.17749459 134.47750245 110.08519053 131.6455413 106.26171875 129.37109375 C104 128 104 128 103 126 C102.96170282 123.51348528 102.98165912 121.0546688 103.04296875 118.5703125 C103.06539635 117.03647183 103.08684735 115.50261664 103.10742188 113.96875 C103.14417897 111.56176867 103.1867374 109.15554182 103.24682617 106.74902344 C103.48494709 96.73754675 103.10049359 88.34733222 99 79 C98.60087402 78.08734375 98.20174805 77.1746875 97.79052734 76.234375 C90.58015434 60.40283444 77.44385807 48.62770525 61.4375 42.1875 C52.76395172 39.09996056 45.05026826 37.83669104 35.875 37.75 C35.12259033 37.74057373 34.37018066 37.73114746 33.5949707 37.72143555 C28.41409068 37.75152723 23.99383326 38.63226223 19 40 C15.25 40.375 15.25 40.375 12 40 C9.04352449 37.47879909 7.24824689 34.90579352 5.4375 31.5 C-4.6385669 14.31738717 -20.91260729 3.82026947 -39.87890625 -1.45703125 C-40.57886719 -1.63621094 -41.27882813 -1.81539062 -42 -2 C-42.61182129 -2.17128418 -43.22364258 -2.34256836 -43.85400391 -2.51904297 C-68.13414318 -7.9606669 -94.49393838 2.88275872 -110.65234375 20.96875 Z " fill="#2C2630" transform="translate(359,203)"/>
<path d="M0 0 C0.68562012 0.18804199 1.37124023 0.37608398 2.07763672 0.56982422 C29.10649979 8.11150699 55.47622553 25.08802838 71.96875 48.0859375 C73.64559029 51.19825471 73.59264981 53.57580109 73 57 C72 59.375 72 59.375 70 61 C67.27919742 61.90693419 64.84777454 62.41725634 62 62 C58.2221952 59.4617874 55.62810723 56.4655543 52.875 52.875 C35.4670491 31.30864238 8.49511692 17.32720409 -19.01171875 14.27734375 C-51.77778846 11.99880217 -81.47069237 20.52657837 -106.62109375 41.90625 C-107.79865234 42.94265625 -107.79865234 42.94265625 -109 44 C-109.60972656 44.5259375 -110.21945313 45.051875 -110.84765625 45.59375 C-129.95022897 63.29637059 -142.05921253 91.31330958 -143.08251953 117.07763672 C-143.95924537 143.32978592 -138.65306462 170.69785942 -121.4375 191.5 C-119.13938337 194.37264579 -119.00335177 194.79889391 -118.9375 198.75 C-120.70176917 204.14658804 -120.70176917 204.14658804 -123 206 C-127.63088901 206.67222582 -129.76955474 206.9003258 -133.5625 204.125 C-134.366875 203.09375 -135.17125 202.0625 -136 201 C-136.52078125 200.34128906 -137.0415625 199.68257812 -137.578125 199.00390625 C-145.04861013 189.02643399 -150.31647673 177.69755318 -154.3125 165.9375 C-154.54267822 165.2671875 -154.77285645 164.596875 -155.01000977 163.90625 C-159.06237878 151.32860008 -160.55652097 138.94671324 -160.4375 125.8125 C-160.43445862 125.09554962 -160.43141724 124.37859924 -160.42828369 123.6399231 C-160.2117292 88.975324 -147.04095358 58.94068986 -123 34 C-122.34515625 33.28199219 -121.6903125 32.56398437 -121.015625 31.82421875 C-115.11677885 25.53463707 -108.13883693 20.76530022 -101 16 C-100.06542969 15.36964844 -99.13085938 14.73929688 -98.16796875 14.08984375 C-70.53460647 -3.26501468 -31.49457726 -9.0922874 0 0 Z " fill="#2C2630" transform="translate(224,107)"/>
<path d="M0 0 C4.03869153 2.72261935 6.1693996 5.50272226 8.48046875 9.75390625 C9.08697266 10.85541016 9.69347656 11.95691406 10.31835938 13.09179688 C10.93517578 14.23712891 11.55199219 15.38246094 12.1875 16.5625 C13.43020824 18.83506286 14.6736635 21.10721742 15.91796875 23.37890625 C16.46219482 24.3851001 17.0064209 25.39129395 17.56713867 26.42797852 C19.02026006 29.11667083 19.02026006 29.11667083 21 32 C21.53644149 35.06618661 21.53697051 37.93317873 21 41 C18.45528778 44.06862356 16.91058019 44.84823663 13 45.5 C9.22768832 44.87128139 7.80512855 43.5740319 5 41 C3.19482422 38.36206055 3.19482422 38.36206055 1.5546875 35.38671875 C0.95269531 34.30326172 0.35070312 33.21980469 -0.26953125 32.10351562 C-0.88183594 30.97623047 -1.49414062 29.84894531 -2.125 28.6875 C-2.74503906 27.57181641 -3.36507812 26.45613281 -4.00390625 25.30664062 C-12.23734936 10.37135188 -12.23734936 10.37135188 -11.4375 5.75 C-8.72600235 0.5627871 -5.82892651 -0.83270379 0 0 Z " fill="#2A242F" transform="translate(103,64)"/>
<path d="M0 0 C2.875 1.4375 2.875 1.4375 5 4 C6.36674961 12.93854247 2.28772993 18.82006761 -2.25 26.25 C-2.94051308 27.41826122 -3.62932919 28.58752719 -4.31640625 29.7578125 C-12.27236545 43.13618272 -12.27236545 43.13618272 -16 45 C-19.61726636 45.40191848 -21.59782296 45.20108852 -24.875 43.5625 C-27.36197005 40.56350671 -27.62120231 38.59131962 -27.52587891 34.74389648 C-26.39170912 28.82609974 -22.85212727 23.82932298 -19.75 18.75 C-19.05948692 17.58173878 -18.37067081 16.41247281 -17.68359375 15.2421875 C-8.14440313 -0.7984709 -8.14440313 -0.7984709 0 0 Z " fill="#2B2430" transform="translate(287,64)"/>
<path d="M0 0 C3.06862356 2.54471222 3.84823663 4.08941981 4.5 8 C3.87062611 11.77624332 2.58152638 13.1948875 0 16 C-2.70141602 17.82104492 -2.70141602 17.82104492 -5.75390625 19.48046875 C-6.85541016 20.08697266 -7.95691406 20.69347656 -9.09179688 21.31835938 C-10.23712891 21.93517578 -11.38246094 22.55199219 -12.5625 23.1875 C-14.83506286 24.43020824 -17.10721742 25.6736635 -19.37890625 26.91796875 C-20.88819702 27.73430786 -20.88819702 27.73430786 -22.42797852 28.56713867 C-25.11667083 30.02026006 -25.11667083 30.02026006 -28 32 C-31.06618661 32.53644149 -33.93317873 32.53697051 -37 32 C-40.06862356 29.45528778 -40.84823663 27.91058019 -41.5 24 C-40.85555271 20.13331627 -39.71799536 18.84077085 -37 16 C-34.23193201 14.14660429 -31.32466694 12.60584948 -28.375 11.0625 C-26.74769363 10.19328382 -25.12138274 9.32220126 -23.49609375 8.44921875 C-22.71733887 8.0320459 -21.93858398 7.61487305 -21.13623047 7.18505859 C-18.48016902 5.71162747 -15.96571807 4.05648469 -13.4375 2.375 C-9.05390313 -0.28241365 -5.04950721 -1.36778912 0 0 Z " fill="#2A242F" transform="translate(65,300)"/>
<path d="M0 0 C3.06862356 2.54471222 3.84823663 4.08941981 4.5 8 C3.87062611 11.77624332 2.58152638 13.1948875 0 16 C-2.70141602 17.82104492 -2.70141602 17.82104492 -5.75390625 19.48046875 C-6.85541016 20.08697266 -7.95691406 20.69347656 -9.09179688 21.31835938 C-10.23712891 21.93517578 -11.38246094 22.55199219 -12.5625 23.1875 C-14.83506286 24.43020824 -17.10721742 25.6736635 -19.37890625 26.91796875 C-20.88819702 27.73430786 -20.88819702 27.73430786 -22.42797852 28.56713867 C-25.11667083 30.02026006 -25.11667083 30.02026006 -28 32 C-31.06618661 32.53644149 -33.93317873 32.53697051 -37 32 C-40.06862356 29.45528778 -40.84823663 27.91058019 -41.5 24 C-40.85555271 20.13331627 -39.71799536 18.84077085 -37 16 C-34.23193201 14.14660429 -31.32466694 12.60584948 -28.375 11.0625 C-26.74769363 10.19328382 -25.12138274 9.32220126 -23.49609375 8.44921875 C-22.71733887 8.0320459 -21.93858398 7.61487305 -21.13623047 7.18505859 C-18.48016902 5.71162747 -15.96571807 4.05648469 -13.4375 2.375 C-9.05390313 -0.28241365 -5.04950721 -1.36778912 0 0 Z " fill="#2B242F" transform="translate(356,132)"/>
<path d="M0 0 C5.91779675 1.13416978 10.91457351 4.67375164 15.99389648 7.77587891 C17.1621577 8.46639199 18.33142367 9.1552081 19.50170898 9.84228516 C32.88007921 17.79824435 32.88007921 17.79824435 34.74389648 21.52587891 C35.14581497 25.14314527 34.94498501 27.12370186 33.30639648 30.40087891 C30.30740319 32.88784895 28.3352161 33.14708122 24.48779297 33.05175781 C18.56999622 31.91758803 13.57321946 28.37800618 8.49389648 25.27587891 C7.32563527 24.58536582 6.1563693 23.89654971 4.98608398 23.20947266 C-8.39228624 15.25351346 -8.39228624 15.25351346 -10.25610352 11.52587891 C-10.658022 7.90861254 -10.45719204 5.92805595 -8.81860352 2.65087891 C-5.81961022 0.16390886 -3.84742314 -0.09532341 0 0 Z " fill="#2A242F" transform="translate(34.256103515625,131.47412109375)"/>
<path d="M0 0 C0.87269531 -0.0038269 1.74539063 -0.00765381 2.64453125 -0.01159668 C4.48699092 -0.0143149 6.32948924 -0.00695994 8.171875 0.00976562 C10.99045934 0.03117752 13.80649485 0.00996199 16.625 -0.015625 C18.41667229 -0.01298171 20.20834299 -0.00785669 22 0 C22.84175781 -0.00809692 23.68351562 -0.01619385 24.55078125 -0.02453613 C30.38715618 0.06889601 30.38715618 0.06889601 33.52929688 2.43945312 C35.12144695 4.7039853 35.542797 5.7922417 35.5 8.53125 C35.5103125 9.19125 35.520625 9.85125 35.53125 10.53125 C34.72011424 13.58493756 33.53019712 14.62236769 31 16.53125 C28.00263779 17.13239553 25.04890723 17.09182764 22 17.0625 C21.12730469 17.0663269 20.25460938 17.07015381 19.35546875 17.07409668 C17.51300908 17.0768149 15.67051076 17.06945994 13.828125 17.05273438 C11.00954066 17.03132248 8.19350515 17.05253801 5.375 17.078125 C3.58332771 17.07548171 1.79165701 17.07035669 0 17.0625 C-0.84175781 17.07059692 -1.68351563 17.07869385 -2.55078125 17.08703613 C-8.38715618 16.99360399 -8.38715618 16.99360399 -11.52929688 14.62304688 C-13.12144695 12.3585147 -13.542797 11.2702583 -13.5 8.53125 C-13.51546875 7.54125 -13.51546875 7.54125 -13.53125 6.53125 C-11.69061453 -0.39820116 -5.94975317 -0.05723107 0 0 Z " fill="#2B252F" transform="translate(13,223.46875)"/>
<path d="M0 0 C0.66 -0.0103125 1.32 -0.020625 2 -0.03125 C5.05368756 0.77988576 6.09111769 1.96980288 8 4.5 C8.60114553 7.49736221 8.56057764 10.45109277 8.53125 13.5 C8.5350769 14.37269531 8.53890381 15.24539062 8.54284668 16.14453125 C8.5455649 17.98699092 8.53820994 19.82948924 8.52148438 21.671875 C8.50007248 24.49045934 8.52128801 27.30649485 8.546875 30.125 C8.54423171 31.91667229 8.53910669 33.70834299 8.53125 35.5 C8.53934692 36.34175781 8.54744385 37.18351562 8.55578613 38.05078125 C8.46235399 43.88715618 8.46235399 43.88715618 6.09179688 47.02929688 C3.8272647 48.62144695 2.7390083 49.042797 0 49 C-0.99 49.01546875 -0.99 49.01546875 -2 49.03125 C-5.05368756 48.22011424 -6.09111769 47.03019712 -8 44.5 C-8.60114553 41.50263779 -8.56057764 38.54890723 -8.53125 35.5 C-8.5350769 34.62730469 -8.53890381 33.75460938 -8.54284668 32.85546875 C-8.5455649 31.01300908 -8.53820994 29.17051076 -8.52148438 27.328125 C-8.50007248 24.50954066 -8.52128801 21.69350515 -8.546875 18.875 C-8.54423171 17.08332771 -8.53910669 15.29165701 -8.53125 13.5 C-8.53934692 12.65824219 -8.54744385 11.81648438 -8.55578613 10.94921875 C-8.46235399 5.11284382 -8.46235399 5.11284382 -6.09179688 1.97070312 C-3.8272647 0.37855305 -2.7390083 -0.042797 0 0 Z " fill="#2B252F" transform="translate(192,39.5)"/>
</svg>
